<?xml version="1.0" encoding="utf-8"?>
<!-- Generator: Adobe Illustrator 13.0.0, SVG Export Plug-In . SVG Version: 6.00 Build 14948)  -->
<!DOCTYPE svg PUBLIC "-//W3C//DTD SVG 1.1//EN" "http://www.w3.org/Graphics/SVG/1.1/DTD/svg11.dtd">
<svg version="1.1" id="レイヤー_2" xmlns="http://www.w3.org/2000/svg" xmlns:xlink="http://www.w3.org/1999/xlink" x="0px"
	 y="0px" width="20px" height="20px" viewBox="0 0 72.071 74.939" enable-background="new 0 0 72.071 74.939"
	 xml:space="preserve">
<g>
	<circle fill="#E8390D" cx="65" cy="7.071" r="7.071"/>
	<path fill="#2BA738" d="M27,19.071c0,0,5.667-11,18.333-10c9.191,0.726,8.678,5.607,13.667,7
		c3.531,0.985,10.667,0.667,10.667,0.667s-6.333,40-28.333,53.333C23.928,80.62,0,73.407,0,54.404
		c0-16.667,13.333-17.333,19.333-16.667s8,8,17.333,6.333C41.307,43.243,58,39.404,67,19.738c0,0-11.667,3.667-16,2.333
		c-4.333-1.333-5.988-3.226-9.667-3.667C37.362,17.929,27,19.071,27,19.071z"/>
</g>
</svg>
